<svg width="24" height="25" viewBox="0 0 24 25" fill="none" xmlns="http://www.w3.org/2000/svg">
<path fill-rule="evenodd" clip-rule="evenodd" d="M12.5 2.98584C12.5 2.57163 12.1642 2.23584 11.75 2.23584C11.3358 2.23584 11 2.57163 11 2.98584V14.6752L6.28034 9.95551C5.98745 9.66262 5.51258 9.66262 5.21968 9.95551C4.92679 10.2484 4.92679 10.7233 5.21968 11.0162L11.2197 17.0162C11.5126 17.3091 11.9875 17.3091 12.2803 17.0162L18.2803 11.0162C18.5732 10.7233 18.5732 10.2484 18.2803 9.95551C17.9875 9.66262 17.5126 9.66262 17.2197 9.95551L12.5 14.6752V2.98584Z" fill="black"/>
<path d="M3 16.2358V19.2358C3 20.3404 3.89543 21.2358 5 21.2358H12H19C20.1046 21.2358 21 20.3404 21 19.2358V16.2358" stroke="black" stroke-width="1.5" stroke-linecap="round"/>
</svg>
