<svg width="60" height="60" viewBox="0 0 60 60" fill="none" xmlns="http://www.w3.org/2000/svg">
<g clip-path="url(#clip0_11_790)">
<g clip-path="url(#clip1_11_790)">
<g clip-path="url(#clip2_11_790)">
<path fill-rule="evenodd" clip-rule="evenodd" d="M27.3384 0.199219H32.6388C39.9184 0.199219 44.1724 1.26841 47.9486 3.29305C51.7249 5.31768 54.705 8.27502 56.7068 12.0514C58.7315 15.8276 59.8007 20.0816 59.8007 27.3612V32.6389C59.8007 39.9185 58.7315 44.1725 56.7068 47.9488C54.6822 51.725 51.7249 54.7052 47.9486 56.7071C44.1724 58.7317 39.9184 59.8009 32.6388 59.8009H27.3611C20.0815 59.8009 15.8275 58.7317 12.0512 56.7071C8.275 54.6824 5.29492 51.725 3.29304 47.9488C1.2684 44.1725 0.199219 39.9185 0.199219 32.6389V27.3612C0.199219 20.0816 1.2684 15.8276 3.29304 12.0514C5.31767 8.27502 8.275 5.29494 12.0512 3.29305C15.8048 1.26841 20.0815 0.199219 27.3384 0.199219Z" fill="#0068FF"/>
<path opacity="0.12" fill-rule="evenodd" clip-rule="evenodd" d="M59.8003 31.7686V32.6395C59.8003 39.9191 58.7312 44.1731 56.7066 47.9494C54.682 51.7256 51.7246 54.7057 47.9483 56.7077C44.172 58.7323 39.918 59.8015 32.6384 59.8015H27.3608C21.4043 59.8015 17.4734 59.0856 14.1725 57.7162L8.73047 52.1123L59.8003 31.7686Z" fill="#001A33"/>
<path fill-rule="evenodd" clip-rule="evenodd" d="M9.3348 52.307C12.1223 52.6152 15.6073 51.8203 18.0818 50.619C28.827 56.5582 45.6236 56.2745 55.7908 49.7678C56.1851 49.1764 56.5535 48.5612 56.8954 47.9236C58.9274 44.1335 60.0005 39.864 60.0005 32.5579V27.261C60.0005 19.9548 58.9274 15.6853 56.8954 11.8953C54.8862 8.10523 51.8953 5.13712 48.1052 3.1051C44.3152 1.07309 40.0457 0 32.7396 0H27.4199C21.1973 0 17.1578 0.783305 13.7639 2.27872C13.5784 2.44484 13.3963 2.61382 13.2181 2.78562C3.26081 12.3844 2.5039 33.1912 10.9473 44.4938C10.9568 44.5105 10.9672 44.5273 10.9787 44.5444C12.2801 46.4622 11.0243 49.8185 9.06082 51.7819C8.74117 52.0788 8.85533 52.2614 9.3348 52.307Z" fill="white"/>
<path d="M24.676 20.3999H13.006V22.9023H21.1044L13.1196 32.7979C12.8694 33.1619 12.6875 33.5032 12.6875 34.2766V34.9135H23.6977C24.2437 34.9135 24.6988 34.4586 24.6988 33.9126V32.5704H16.1908L23.6977 23.1525C23.8115 23.016 24.0162 22.7658 24.1073 22.6521L24.1528 22.5838C24.585 21.9468 24.676 21.4008 24.676 20.7412V20.3999Z" fill="#0068FF"/>
<path d="M39.5302 34.9135H41.1908V20.3999H38.6885V34.0719C38.6885 34.5269 39.0524 34.9135 39.5302 34.9135Z" fill="#0068FF"/>
<path d="M30.9767 23.6309C27.8374 23.6309 25.2896 26.1787 25.2896 29.318C25.2896 32.4573 27.8374 35.0052 30.9767 35.0052C34.116 35.0052 36.6639 32.4573 36.6639 29.318C36.6867 26.1787 34.1388 23.6309 30.9767 23.6309ZM30.9767 32.6621C29.1341 32.6621 27.6327 31.1606 27.6327 29.318C27.6327 27.4754 29.1341 25.974 30.9767 25.974C32.8193 25.974 34.3208 27.4754 34.3208 29.318C34.3208 31.1606 32.8421 32.6621 30.9767 32.6621Z" fill="#0068FF"/>
<path d="M48.5842 23.5396C45.4221 23.5396 42.8516 26.1102 42.8516 29.2722C42.8516 32.4343 45.4221 35.005 48.5842 35.005C51.7462 35.005 54.3168 32.4343 54.3168 29.2722C54.3168 26.1102 51.7462 23.5396 48.5842 23.5396ZM48.5842 32.6618C46.7188 32.6618 45.2174 31.1604 45.2174 29.295C45.2174 27.4296 46.7188 25.9282 48.5842 25.9282C50.4496 25.9282 51.951 27.4296 51.951 29.295C51.951 31.1604 50.4496 32.6618 48.5842 32.6618Z" fill="#0068FF"/>
<path d="M35.3476 34.9131H36.6898V23.9482H34.3467V33.935C34.3467 34.4582 34.8016 34.9131 35.3476 34.9131Z" fill="#0068FF"/>
</g>
</g>
</g>
<defs>
<clipPath id="clip0_11_790">
<rect width="60" height="60" fill="white"/>
</clipPath>
<clipPath id="clip1_11_790">
<rect width="60" height="60" fill="white"/>
</clipPath>
<clipPath id="clip2_11_790">
<rect width="60" height="60" fill="white"/>
</clipPath>
</defs>
</svg>
